<svg viewBox="0 0 40 40" fill="inherit" xmlns="http://www.w3.org/2000/svg">
<path fill-rule="evenodd" clip-rule="evenodd" d="M19.1309 1.71971C21.1589 0.611999 24.0043 0.31189 27.4112 2.27886C30.8181 4.24584 31.9809 6.86008 32.0357 9.17027C32.0611 10.2456 31.8454 11.1621 31.6312 11.8015C31.5229 12.1249 31.4112 12.3889 31.3215 12.5809C31.2765 12.6773 31.2367 12.7565 31.2049 12.8171C31.189 12.8474 31.1751 12.8732 31.1635 12.8942L31.1479 12.9221L31.1415 12.9334L31.1387 12.9384L31.1373 12.9407C31.1367 12.9418 31.1361 12.9429 29.2832 11.8732L31.1361 12.9429L20.6033 31.1861L18.7683 30.1267C20.6033 31.1861 20.6026 31.1872 20.602 31.1883L20.6007 31.1905L20.598 31.1952L20.5922 31.2051L20.5787 31.2277C20.5688 31.244 20.5574 31.2626 20.5442 31.2834C20.518 31.3249 20.4848 31.3754 20.4445 31.4329C20.3645 31.5473 20.254 31.6932 20.1116 31.8544C19.8318 32.1708 19.3974 32.5811 18.7916 32.9119C17.4401 33.6501 15.6187 33.7813 13.6014 32.6166C11.5841 31.4519 10.787 29.8089 10.7505 28.2694C10.7341 27.5794 10.8722 26.9981 11.0063 26.5975C11.0746 26.3936 11.1458 26.2249 11.2048 26.0984C11.2345 26.0348 11.2616 25.9809 11.2844 25.9374C11.2959 25.9156 11.3063 25.8963 11.3154 25.8797L11.3283 25.8567L11.334 25.8466L11.3366 25.842L11.3379 25.8398C11.3385 25.8387 11.3392 25.8376 13.192 26.9072L11.3392 25.8376L21.872 7.5943C22.4537 6.58675 23.7548 6.24891 24.7781 6.8397C25.8013 7.43049 26.1593 8.7262 25.5776 9.73375L15.0713 27.9311C15.0668 27.9418 15.0603 27.9583 15.0531 27.9797C15.0273 28.0569 15.0099 28.146 15.0118 28.2267C15.0134 28.2912 15.0259 28.3536 15.0742 28.4331C15.1242 28.5152 15.2756 28.7183 15.7079 28.9679C16.1403 29.2176 16.3919 29.2471 16.488 29.2493C16.5809 29.2515 16.6412 29.2311 16.6979 29.2002C16.7687 29.1615 16.8371 29.1019 16.891 29.0409C16.906 29.024 16.9171 29.0101 16.9241 29.0009L27.4195 10.8223C27.4245 10.8127 27.4351 10.7919 27.4495 10.761C27.4822 10.691 27.5327 10.5736 27.5844 10.4193C27.6902 10.1032 27.7853 9.67894 27.7743 9.21296C27.756 8.44043 27.4562 7.16968 25.3047 5.92751C23.1532 4.68534 21.9028 5.06107 21.2246 5.43148C20.8156 5.6549 20.4957 5.94941 20.2749 6.1991C20.1671 6.32104 20.0907 6.42351 20.0464 6.48677C20.0269 6.51477 20.0141 6.53429 20.0083 6.54341L9.49204 24.7581C9.48981 24.7622 9.48549 24.7701 9.47931 24.7818C9.46354 24.8117 9.43588 24.8656 9.40009 24.9412C9.3282 25.0931 9.22551 25.3283 9.12078 25.6287C8.90841 26.2379 8.70471 27.0665 8.70052 27.9864C8.69285 29.6674 9.32837 31.9739 12.8114 33.9848C14.6178 35.0277 15.9856 35.2937 16.9804 35.2551C17.9701 35.2168 18.7668 34.8707 19.422 34.3939C20.0946 33.9045 20.6059 33.2837 20.9556 32.758C21.1271 32.5003 21.2505 32.2793 21.3276 32.1307C21.3659 32.0568 21.3921 32.002 21.4065 31.971C21.4102 31.9631 21.4131 31.9567 21.4152 31.952C21.4164 31.9494 21.4174 31.9472 21.4181 31.9457L21.4646 31.8348L32.0629 13.478C32.6446 12.4705 33.9457 12.1326 34.969 12.7234C35.9923 13.3142 36.3502 14.6099 35.7685 15.6175L25.2887 33.7691C25.2864 33.7741 25.284 33.7793 25.2815 33.7845C25.2437 33.8659 25.1912 33.9747 25.1233 34.1055C24.9881 34.3664 24.7895 34.7197 24.5225 35.1211C23.9954 35.9134 23.1638 36.9497 21.9724 37.8165C20.7636 38.6961 19.1752 39.4053 17.2036 39.4816C15.2371 39.5577 13.0674 38.9975 10.7049 37.6335C5.85032 34.8307 4.42356 31.0816 4.43802 27.9105C4.4449 26.4044 4.77337 25.1078 5.09041 24.1983C5.25037 23.7394 5.4117 23.3669 5.53764 23.1009C5.60077 22.9676 5.65548 22.86 5.69735 22.7806C5.7183 22.7409 5.73609 22.7082 5.75016 22.6827L5.76845 22.65L5.77539 22.6378L5.77829 22.6327L5.77959 22.6305C5.7802 22.6294 5.7808 22.6284 7.63361 23.6981L5.7808 22.6284L16.3135 4.38514L18.1664 5.45486C16.3135 4.38514 16.3142 4.38405 16.3148 4.38294L16.3161 4.38064L16.319 4.3757L16.3256 4.36452L16.342 4.33705C16.3544 4.31652 16.3697 4.29158 16.388 4.26264C16.4246 4.20482 16.4733 4.13066 16.5343 4.04354C16.6557 3.86991 16.8285 3.64114 17.0544 3.38565C17.501 2.88047 18.1868 2.23535 19.1309 1.71971Z" fill="inherit"/>
</svg>
