<svg viewBox="0 0 40 40" fill="inherit" xmlns="http://www.w3.org/2000/svg">
<path fill-rule="evenodd" clip-rule="evenodd" d="M1.23579 37.659C2.06105 38.4828 3.05263 38.8947 4.21053 38.8947H35.7895C36.9474 38.8947 37.9389 38.4828 38.7642 37.659C39.5881 36.8337 40 35.8421 40 34.6842V5.21053C40 4.05263 39.5881 3.06105 38.7642 2.23579C37.9389 1.41193 36.9474 1 35.7895 1H4.21053C3.05263 1 2.06105 1.41193 1.23579 2.23579C0.41193 3.06105 0 4.05263 0 5.21053V34.6842C0 35.8421 0.41193 36.8337 1.23579 37.659ZM4.21053 11.5263H35.7895V5.21053H4.21053V11.5263ZM10.5263 15.7368H4.21053V34.6842H10.5263V15.7368ZM29.4737 15.7368V34.6842H35.7895V15.7368H29.4737ZM25.2632 15.7368H14.7368V34.6842H25.2632V15.7368Z" fill="inherit"/>
</svg>
