<svg viewBox="0 0 40 40" fill="inherit" xmlns="http://www.w3.org/2000/svg">
<path fill-rule="evenodd" clip-rule="evenodd" d="M6.02 8L6.01714 12H34V8.0072L33.9966 8.00343L33.9928 8H6.02ZM38 36C38 38.2 36.2 40 34 40H6C3.78 40 2 38.2 2 36L2.02 8C2.02 5.8 3.78 4 6 4H8V2C8 0.9 8.9 0 10 0C11.1 0 12 0.9 12 2V4H28V2C28 0.9 28.9 0 30 0C31.1 0 32 0.9 32 2V4H34C36.2 4 38 5.8 38 8V36ZM6 36H33.9928L34 36.0001L34 35.9928V16H6V36ZM14 22C14 23.1046 13.1046 24 12 24C10.8954 24 10 23.1046 10 22C10 20.8954 10.8954 20 12 20C13.1046 20 14 20.8954 14 22ZM12 32C13.1046 32 14 31.1046 14 30C14 28.8954 13.1046 28 12 28C10.8954 28 10 28.8954 10 30C10 31.1046 10.8954 32 12 32ZM22 30C22 31.1046 21.1046 32 20 32C18.8954 32 18 31.1046 18 30C18 28.8954 18.8954 28 20 28C21.1046 28 22 28.8954 22 30ZM20 24C21.1046 24 22 23.1046 22 22C22 20.8954 21.1046 20 20 20C18.8954 20 18 20.8954 18 22C18 23.1046 18.8954 24 20 24ZM30 22C30 23.1046 29.1046 24 28 24C26.8954 24 26 23.1046 26 22C26 20.8954 26.8954 20 28 20C29.1046 20 30 20.8954 30 22ZM28 32C29.1046 32 30 31.1046 30 30C30 28.8954 29.1046 28 28 28C26.8954 28 26 28.8954 26 30C26 31.1046 26.8954 32 28 32Z" fill="inherit"/>
</svg>
