<svg viewBox="0 0 40 40" fill="inherit" xmlns="http://www.w3.org/2000/svg">
<path d="M33.5891 33.7526C34.4317 32.9101 34.4317 31.549 33.5891 30.7065L23.0463 20.142L33.6108 9.57753C34.4533 8.73497 34.4533 7.3739 33.6108 6.53134C32.7682 5.68877 31.4071 5.68877 30.5646 6.53134L20.0001 17.0958L9.43564 6.53134C8.59307 5.68877 7.23201 5.68877 6.38945 6.53134C5.54688 7.3739 5.54688 8.73497 6.38945 9.57753L16.9539 20.142L6.38945 30.7065C5.54688 31.549 5.54688 32.9101 6.38945 33.7526C7.23201 34.5952 8.59307 34.5952 9.43564 33.7526L20.0001 23.1882L30.5646 33.7526C31.3855 34.5736 32.7682 34.5736 33.5891 33.7526Z" fill="inherit"/>
</svg>
