<svg viewBox="0 0 40 40" fill="inherit" xmlns="http://www.w3.org/2000/svg">
<path d="M20 9.73333C26.8909 9.73333 33.0364 13.7093 36.0364 20C33.0364 26.2907 26.9091 30.2667 20 30.2667C13.0909 30.2667 6.96364 26.2907 3.96364 20C6.96364 13.7093 13.1091 9.73333 20 9.73333ZM20 6C10.9091 6 3.14545 11.8053 0 20C3.14545 28.1947 10.9091 34 20 34C29.0909 34 36.8545 28.1947 40 20C36.8545 11.8053 29.0909 6 20 6ZM20 15.3333C22.5091 15.3333 24.5455 17.424 24.5455 20C24.5455 22.576 22.5091 24.6667 20 24.6667C17.4909 24.6667 15.4545 22.576 15.4545 20C15.4545 17.424 17.4909 15.3333 20 15.3333ZM20 11.6C15.4909 11.6 11.8182 15.3707 11.8182 20C11.8182 24.6293 15.4909 28.4 20 28.4C24.5091 28.4 28.1818 24.6293 28.1818 20C28.1818 15.3707 24.5091 11.6 20 11.6Z" fill="inherit"/>
</svg>
