<svg viewBox="0 0 40 40" fill="inherit" xmlns="http://www.w3.org/2000/svg">
<path fill-rule="evenodd" clip-rule="evenodd" d="M22.2222 33.6667H17.7778C16.5556 33.6667 15.5556 32.6667 15.5556 31.4444C15.5556 30.2222 16.5556 29.2222 17.7778 29.2222H22.2222C23.4444 29.2222 24.4444 30.2222 24.4444 31.4444C24.4444 32.6667 23.4444 33.6667 22.2222 33.6667ZM2.22222 11.4444C1 11.4444 0 10.4444 0 9.22222C0 8 1 7 2.22222 7H37.7778C39 7 40 8 40 9.22222C40 10.4444 39 11.4444 37.7778 11.4444H2.22222ZM31.1111 22.5556H8.88889C7.66667 22.5556 6.66667 21.5556 6.66667 20.3333C6.66667 19.1111 7.66667 18.1111 8.88889 18.1111H31.1111C32.3333 18.1111 33.3333 19.1111 33.3333 20.3333C33.3333 21.5556 32.3333 22.5556 31.1111 22.5556Z" fill="inherit"/>
</svg>
