<svg width="50" height="50" viewBox="0 0 50 50" fill="none" xmlns="http://www.w3.org/2000/svg">
<path fill-rule="evenodd" clip-rule="evenodd" d="M25 8.63636C15.9626 8.63636 8.63636 15.9626 8.63636 25C8.63636 34.0374 15.9626 41.3636 25 41.3636C29.2981 41.3636 33.2057 39.7089 36.127 36.9984C36.8631 36.3154 38.0135 36.3585 38.6965 37.0946C39.3795 37.8307 39.3364 38.9811 38.6003 39.6641C35.0331 42.9739 30.2512 45 25 45C13.9543 45 5 36.0457 5 25C5 13.9543 13.9543 5 25 5C30.2512 5 35.0331 7.02614 38.6003 10.3359C39.3364 11.0189 39.3795 12.1693 38.6965 12.9054C38.0135 13.6415 36.8631 13.6846 36.127 13.0016C33.2057 10.2911 29.2981 8.63636 25 8.63636Z" fill="#fb923c"/>
<path fill-rule="evenodd" clip-rule="evenodd" d="M24.6539 34.0912C29.92 34.0912 34.0912 29.9679 34.0912 25.0003C34.0912 20.0326 29.92 15.9094 24.6539 15.9094C22.1575 15.9094 19.8984 16.8405 18.216 18.3534C17.4694 19.0249 16.3198 18.9639 15.6484 18.2173C14.9769 17.4707 15.0379 16.3211 15.7845 15.6496C18.1188 13.5504 21.2389 12.273 24.6539 12.273C31.8203 12.273 37.7275 17.918 37.7275 25.0003C37.7275 32.0825 31.8203 37.7275 24.6539 37.7275C21.2389 37.7275 18.1188 36.4502 15.7845 34.3509C15.0378 33.6795 14.9769 32.5299 15.6484 31.7832C16.3198 31.0366 17.4694 30.9756 18.216 31.6471C19.8984 33.16 22.1575 34.0912 24.6539 34.0912Z" fill="#FAFAFA"/>
<path d="M20.6365 25.3638C20.6365 23.1546 22.4273 21.3638 24.6365 21.3638C26.8456 21.3638 28.6365 23.1546 28.6365 25.3638C28.6365 27.5729 26.8456 29.3638 24.6365 29.3638C22.4273 29.3638 20.6365 27.5729 20.6365 25.3638Z" fill="#fb923c"/>
<path fill-rule="evenodd" clip-rule="evenodd" d="M18.8181 25.3641C18.8181 22.1508 21.423 19.5459 24.6363 19.5459C27.8496 19.5459 30.4545 22.1508 30.4545 25.3641C30.4545 28.5774 27.8496 31.1823 24.6363 31.1823C21.423 31.1823 18.8181 28.5774 18.8181 25.3641ZM24.6363 23.1823C23.4313 23.1823 22.4545 24.1591 22.4545 25.3641C22.4545 26.5691 23.4313 27.5459 24.6363 27.5459C25.8413 27.5459 26.8181 26.5691 26.8181 25.3641C26.8181 24.1591 25.8413 23.1823 24.6363 23.1823Z" fill="#fb923c"/>
</svg>
