<svg viewBox="0 0 50 50" fill="none" xmlns="http://www.w3.org/2000/svg">
<path fill-rule="evenodd" clip-rule="evenodd" d="M25 4.54545C13.7033 4.54545 4.54545 13.7033 4.54545 25C4.54545 36.2967 13.7033 45.4545 25 45.4545C30.3727 45.4545 35.2571 43.3861 38.9087 39.998C39.8288 39.1443 41.2668 39.1981 42.1206 40.1182C42.9743 41.0383 42.9205 42.4763 42.0004 43.3301C37.5414 47.4673 31.5639 50 25 50C11.1929 50 0 38.8071 0 25C0 11.1929 11.1929 0 25 0C31.5639 0 37.5414 2.53267 42.0004 6.66991C42.9205 7.52366 42.9743 8.96166 42.1206 9.88179C41.2668 10.8019 39.8288 10.8557 38.9087 10.002C35.2571 6.61386 30.3727 4.54545 25 4.54545Z" fill="#FDBA74"/>
<path fill-rule="evenodd" clip-rule="evenodd" d="M24.5674 36.3642C31.15 36.3642 36.364 31.2101 36.364 25.0006C36.364 18.791 31.15 13.6369 24.5674 13.6369C21.4469 13.6369 18.623 14.8009 16.5201 16.692C15.5868 17.5314 14.1498 17.4552 13.3104 16.5219C12.4711 15.5886 12.5473 14.1516 13.4806 13.3123C16.3985 10.6882 20.2986 9.09148 24.5674 9.09148C33.5254 9.09148 40.9094 16.1478 40.9094 25.0006C40.9094 33.8534 33.5254 40.9097 24.5674 40.9097C20.2986 40.9097 16.3985 39.313 13.4806 36.6889C12.5473 35.8496 12.4711 34.4126 13.3104 33.4793C14.1498 32.546 15.5868 32.4698 16.5201 33.3091C18.623 35.2003 21.4469 36.3642 24.5674 36.3642Z" fill="#FAFAFA"/>
<path fill-rule="evenodd" clip-rule="evenodd" d="M17.2727 25.4549C17.2727 21.4382 20.5288 18.1821 24.5454 18.1821C28.5621 18.1821 31.8182 21.4382 31.8182 25.4549C31.8182 29.4715 28.5621 32.7276 24.5454 32.7276C20.5288 32.7276 17.2727 29.4715 17.2727 25.4549Z" fill="#FDBA74"/>
</svg>
