<svg width="200" height="200" viewBox="0 0 200 200" fill="none" xmlns="http://www.w3.org/2000/svg">
<rect width="200" height="200" rx="50" fill="#2A303C"/>
<path fill-rule="evenodd" clip-rule="evenodd" d="M100 34.5455C63.8505 34.5455 34.5455 63.8505 34.5455 100C34.5455 136.15 63.8505 165.455 100 165.455C117.193 165.455 132.823 158.836 144.508 147.994C147.452 145.262 152.054 145.434 154.786 148.378C157.518 151.323 157.346 155.924 154.401 158.656C140.133 171.895 121.005 180 100 180C55.8172 180 20 144.183 20 100C20 55.8172 55.8172 20 100 20C121.005 20 140.133 28.1045 154.401 41.3437C157.346 44.0757 157.518 48.6773 154.786 51.6217C152.054 54.5661 147.452 54.7383 144.508 52.0064C132.823 41.1644 117.193 34.5455 100 34.5455Z" fill="#FFCA9B"/>
<path fill-rule="evenodd" clip-rule="evenodd" d="M98.6155 136.364C119.68 136.364 136.364 119.871 136.364 100.001C136.364 80.1303 119.68 63.6371 98.6155 63.6371C88.6298 63.6371 79.5932 67.3618 72.8639 73.4135C69.8773 76.0993 65.2789 75.8555 62.5931 72.8689C59.9073 69.8824 60.1511 65.284 63.1377 62.5982C72.4749 54.2011 84.9553 49.0917 98.6155 49.0917C127.281 49.0917 150.91 71.6719 150.91 100.001C150.91 128.33 127.281 150.91 98.6155 150.91C84.9553 150.91 72.4749 145.8 63.1376 137.403C60.1511 134.718 59.9073 130.119 62.5931 127.133C65.2789 124.146 69.8773 123.902 72.8639 126.588C79.5932 132.64 88.6298 136.364 98.6155 136.364Z" fill="#EFF2FE"/>
<path d="M82.5457 101.454C82.5457 92.6179 89.7092 85.4545 98.5457 85.4545V85.4545C107.382 85.4545 114.546 92.6179 114.546 101.454V101.454C114.546 110.291 107.382 117.454 98.5457 117.454V117.454C89.7092 117.454 82.5457 110.291 82.5457 101.454V101.454Z" fill="#FFCA9B"/>
<path fill-rule="evenodd" clip-rule="evenodd" d="M75.2725 101.456C75.2725 88.6027 85.692 78.1831 98.5452 78.1831C111.398 78.1831 121.818 88.6027 121.818 101.456C121.818 114.309 111.398 124.729 98.5452 124.729C85.692 124.729 75.2725 114.309 75.2725 101.456ZM98.5452 92.7286C93.7253 92.7286 89.8179 96.6359 89.8179 101.456C89.8179 106.276 93.7253 110.183 98.5452 110.183C103.365 110.183 107.272 106.276 107.272 101.456C107.272 96.6359 103.365 92.7286 98.5452 92.7286Z" fill="#FFCA9B"/>
</svg>
