<svg viewBox="0 0 40 40" fill="inherit" xmlns="http://www.w3.org/2000/svg">
<path d="M2.22222 33.6667H37.7778C39 33.6667 40 32.6667 40 31.4444C40 30.2222 39 29.2222 37.7778 29.2222H2.22222C1 29.2222 0 30.2222 0 31.4444C0 32.6667 1 33.6667 2.22222 33.6667ZM2.22222 22.5556H37.7778C39 22.5556 40 21.5556 40 20.3333C40 19.1111 39 18.1111 37.7778 18.1111H2.22222C1 18.1111 0 19.1111 0 20.3333C0 21.5556 1 22.5556 2.22222 22.5556ZM0 9.22222C0 10.4444 1 11.4444 2.22222 11.4444H37.7778C39 11.4444 40 10.4444 40 9.22222C40 8 39 7 37.7778 7H2.22222C1 7 0 8 0 9.22222Z" fill="inherit"/>
</svg>
