<svg viewBox="0 0 40 40" fill="inherit" xmlns="http://www.w3.org/2000/svg">
<path fill-rule="evenodd" clip-rule="evenodd" d="M8.88889 13.3333C8.88889 10.8889 10.8889 8.88889 13.3333 8.88889H35.5556C38 8.88889 40 10.8889 40 13.3333V35.5556C40 36.2467 39.8401 36.9022 39.5556 37.4871C39.1182 38.3861 38.3861 39.1182 37.4871 39.5556C36.9022 39.8401 36.2467 40 35.5556 40H13.3333C12.6422 40 11.9867 39.8401 11.4018 39.5556C10.5028 39.1182 9.77073 38.3861 9.33333 37.4871C9.04876 36.9022 8.88889 36.2467 8.88889 35.5556V13.3333ZM6.66667 31.1111V26.6667H4.44444V4.44444H26.6667V6.66667H31.1111V4.44444C31.1111 3.8133 30.9778 3.21178 30.7379 2.66667C30.7151 2.61488 30.6914 2.56361 30.6667 2.51286C30.2293 1.61387 29.4972 0.881845 28.5982 0.444445C28.0134 0.159866 27.3578 0 26.6667 0H4.44444C3.75334 0 3.09776 0.159866 2.51286 0.444445C1.61387 0.881845 0.881845 1.61387 0.444445 2.51286C0.159866 3.09776 0 3.75334 0 4.44444V26.6667C0 27.3578 0.159866 28.0134 0.444445 28.5982C0.881845 29.4972 1.61387 30.2293 2.51286 30.6667C2.56361 30.6914 2.61488 30.7151 2.66667 30.7379C3.21178 30.9778 3.8133 31.1111 4.44444 31.1111H6.66667ZM33.3333 17.7778C34.5556 17.7778 35.5556 16.7778 35.5556 15.5556C35.5556 14.3333 34.5556 13.3333 33.3333 13.3333H15.5556C14.3333 13.3333 13.3333 14.3333 13.3333 15.5556C13.3333 16.7778 14.3333 17.7778 15.5556 17.7778H33.3333ZM22.2222 26.6667H26.6667V22.2222H22.2222V26.6667ZM26.6667 31.1111H22.2222V35.5556H26.6667V31.1111ZM17.7778 26.6667V22.2222H13.3333V26.6667H17.7778ZM31.1111 22.2222V26.6667H35.5556V22.2222H31.1111ZM13.3333 31.1111V35.5556H17.7778V31.1111H13.3333ZM31.1111 35.5556H35.5556V31.1111H31.1111V35.5556Z" fill="inherit"/>
</svg>
