<svg viewBox="0 0 40 40" fill="inherit" xmlns="http://www.w3.org/2000/svg">
<path fill-rule="evenodd" clip-rule="evenodd" d="M29.313 25.7956H27.4605L26.8039 25.1625C27.0319 24.8966 27.2509 24.6228 27.4605 24.3416C27.5895 24.1687 27.7149 23.9929 27.8366 23.8145C28.2735 23.1742 28.6631 22.4995 29.0004 21.7956C30.3024 19.0786 30.8248 15.9267 30.2744 12.6406C29.1723 6.12172 23.7321 0.915987 17.1663 0.118713C7.24728 -1.10065 -1.10065 7.24728 0.118713 17.1663C0.915987 23.7321 6.12172 29.1723 12.6406 30.2744C15.9267 30.8248 19.0786 30.3024 21.7956 29.0004C22.4995 28.6631 23.1742 28.2735 23.8145 27.8366C23.9929 27.7149 24.1687 27.5895 24.3416 27.4605C24.6228 27.2509 24.8966 27.0319 25.1625 26.8039L25.7956 27.4605V29.313L35.7616 39.2789C36.723 40.2404 38.2941 40.2404 39.2555 39.2789C40.2169 38.3175 40.2169 36.7464 39.2555 35.785L29.313 25.7956ZM36.4271 38.6134C36.4248 38.6112 36.4226 38.609 36.4204 38.6068L36.4271 38.6134ZM4.69131 15.2435C4.69131 21.0823 9.40461 25.7956 15.2435 25.7956C21.0823 25.7956 25.7956 21.0823 25.7956 15.2435C25.7956 9.40461 21.0823 4.69131 15.2435 4.69131C9.40461 4.69131 4.69131 9.40461 4.69131 15.2435Z" fill="inherit"/>
</svg>
