<svg viewBox="0 0 40 40" fill="inherit" xmlns="http://www.w3.org/2000/svg">
<path fill-rule="evenodd" clip-rule="evenodd" d="M35.3866 18.64C35.4266 19.1 35.4466 19.54 35.4466 20C35.4466 20.46 35.4266 20.9 35.3666 21.36L39.0866 24.18C39.8866 24.8 40.1066 25.9 39.6066 26.78L35.8666 33.24C35.3666 34.12 34.2866 34.48 33.3666 34.08L29.0666 32.26C28.3266 32.78 27.5466 33.24 26.7266 33.62L26.1466 38.24C26.0266 39.24 25.1666 40 24.1666 40H16.7066C15.7066 40 14.8466 39.24 14.7266 38.24L14.1466 33.62C13.3266 33.24 12.5466 32.78 11.8066 32.26L7.5066 34.08C6.5866 34.48 5.5066 34.12 5.0066 33.24L1.2666 26.78C0.766596 25.9 0.986596 24.78 1.7866 24.18L5.5066 21.36C5.4666 20.9 5.4466 20.46 5.4466 20C5.4466 19.54 5.4666 19.1 5.5066 18.66L1.7866 15.84C0.986596 15.22 0.766596 14.12 1.2666 13.24L5.0066 6.76C5.5066 5.88 6.5866 5.52 7.5066 5.92L11.8066 7.74C12.5466 7.22 13.3266 6.76 14.1466 6.38L14.7266 1.76C14.8466 0.76 15.7066 0 16.7266 0H24.1866C25.1866 0 26.0466 0.76 26.1666 1.76L26.7466 6.38C27.5666 6.76 28.3466 7.22 29.0866 7.74L33.3866 5.92C34.3066 5.52 35.3866 5.88 35.8866 6.76L39.6266 13.22C40.1266 14.1 39.9066 15.22 39.1066 15.82L35.3866 18.64ZM13.5266 20C13.5266 23.86 16.6666 27 20.5266 27C24.3866 27 27.5266 23.86 27.5266 20C27.5266 16.14 24.3866 13 20.5266 13C16.6666 13 13.5266 16.14 13.5266 20Z" fill="inherit"/>
</svg>
