<svg viewBox="0 0 40 40" fill="inherit" xmlns="http://www.w3.org/2000/svg">
<path d="M2.22222 33.6667H11.1111C12.3333 33.6667 13.3333 32.6667 13.3333 31.4444C13.3333 30.2222 12.3333 29.2222 11.1111 29.2222H2.22222C1 29.2222 0 30.2222 0 31.4444C0 32.6667 1 33.6667 2.22222 33.6667ZM0 9.22222C0 10.4444 1 11.4444 2.22222 11.4444H37.7778C39 11.4444 40 10.4444 40 9.22222C40 8 39 7 37.7778 7H2.22222C1 7 0 8 0 9.22222ZM2.22222 22.5556H24.4444C25.6667 22.5556 26.6667 21.5556 26.6667 20.3333C26.6667 19.1111 25.6667 18.1111 24.4444 18.1111H2.22222C1 18.1111 0 19.1111 0 20.3333C0 21.5556 1 22.5556 2.22222 22.5556Z" fill="inherit"/>
</svg>
