<svg viewBox="0 0 40 40" fill="inherit" xmlns="http://www.w3.org/2000/svg">
<path d="M19.3511 25.9701C19.4367 26.2858 19.6036 26.5842 19.8519 26.8325L25.8541 32.8346C26.0221 33.0027 26.2131 33.1335 26.4169 33.227C26.9429 33.4683 27.554 33.4612 28.075 33.2057C28.2619 33.114 28.4373 32.9903 28.5929 32.8346L39.4318 21.9763C40.1894 21.2188 40.1894 19.995 39.4318 19.2375L39.257 19.0626C38.4994 18.3051 37.2563 18.3051 36.5181 19.0821L27.2337 28.386L22.7656 23.9188C22.008 23.1612 20.7843 23.1612 20.0267 23.9188L19.8519 24.0936C19.7273 24.2182 19.6232 24.3554 19.5396 24.501C19.2815 24.9508 19.2186 25.4811 19.3511 25.9701ZM21.367 18.6547C22.4354 18.6547 23.3095 17.7806 23.3095 16.7123C23.3095 15.844 22.7321 15.104 21.9423 14.8573C21.7603 14.8005 21.5671 14.7698 21.367 14.7698H1.94245C1.7424 14.7698 1.54915 14.8005 1.36718 14.8573C0.577387 15.104 0 15.844 0 16.7123C0 17.5806 0.577387 18.3205 1.36718 18.5672C1.54915 18.6241 1.7424 18.6547 1.94245 18.6547H21.367ZM15.2838 25.4428C15.4465 25.159 15.5396 24.8309 15.5396 24.4821C15.5396 24.3071 15.5162 24.1373 15.4723 23.9757C15.3059 23.3635 14.8457 22.869 14.2543 22.6547C14.0488 22.5803 13.8275 22.5396 13.5972 22.5396H1.94245C1.7424 22.5396 1.54915 22.5703 1.36718 22.6271C0.577387 22.8738 0 23.6138 0 24.4821C0 25.5504 0.874105 26.4245 1.94245 26.4245H13.5972C14.3167 26.4245 14.9481 26.0281 15.2838 25.4428ZM1.36717 10.7974C1.54915 10.8543 1.7424 10.8849 1.94245 10.8849H21.367C21.5671 10.8849 21.7603 10.8543 21.9423 10.7974C22.7321 10.5507 23.3095 9.81075 23.3095 8.94245C23.3095 7.8741 22.4354 7 21.367 7H1.94245C0.874105 7 0 7.8741 0 8.94245C0 9.81075 0.577386 10.5507 1.36717 10.7974ZM36.6009 19.1504L36.5956 19.1557C36.5974 19.1539 36.5991 19.1522 36.6009 19.1504Z" fill="inherit"/>
</svg>
