<svg viewBox="0 0 40 40" fill="inherit" xmlns="http://www.w3.org/2000/svg">
<path d="M29 20C31.76 20 33.98 17.76 33.98 15C33.98 12.24 31.76 10 29 10C26.24 10 24 12.24 24 15C24 17.76 26.24 20 29 20ZM14 18C17.32 18 19.98 15.32 19.98 12C19.98 8.68 17.32 6 14 6C10.68 6 8 8.68 8 12C8 15.32 10.68 18 14 18ZM29 24C25.34 24 18 25.84 18 29.5V32C18 33.1 18.9 34 20 34H38C39.1 34 40 33.1 40 32V29.5C40 25.84 32.66 24 29 24ZM14 22C9.34 22 0 24.34 0 29V32C0 33.1 0.9 34 2 34H14V29.5C14 27.8 14.66 24.82 18.74 22.56C17 22.2 15.32 22 14 22Z" fill="inherit"/>
</svg>
