<svg viewBox="0 0 40 40" fill="inherit" xmlns="http://www.w3.org/2000/svg">
<g clip-path="url(#clip0_144_19715)">
<path d="M14.1556 5.57778C13.7556 7 13.5556 8.48889 13.5556 10C13.5556 19.0667 20.9333 26.4444 30 26.4444C31.5111 26.4444 33 26.2444 34.4222 25.8444C32.1111 31.5333 26.5111 35.5556 20 35.5556C11.4222 35.5556 4.44444 28.5778 4.44444 20C4.44444 13.4889 8.46667 7.88889 14.1556 5.57778ZM20 0C8.95556 0 0 8.95556 0 20C0 31.0444 8.95556 40 20 40C31.0444 40 40 31.0444 40 20C40 18.9778 39.9111 17.9556 39.7778 16.9778C37.6 20.0222 34.0444 22 30 22C23.3778 22 18 16.6222 18 10C18 5.97778 19.9778 2.4 23.0222 0.222222C22.0444 0.0888887 21.0222 0 20 0Z" fill="inherit"/>
</g>
<defs>
<clipPath id="clip0_144_19715">
<rect width="inherit" height="inherit"/>
</clipPath>
</defs>
</svg>
