<svg viewBox="0 0 40 40" fill="inherit" xmlns="http://www.w3.org/2000/svg">
<path d="M21.5818 25.7636L16.9636 21.2L17.0182 21.1455C20.1818 17.6182 22.4364 13.5636 23.7636 9.27273H29.0909V5.63636H16.3636V2H12.7273V5.63636H0V9.25454H20.3091C19.0909 12.7636 17.1636 16.0909 14.5455 19C12.8545 17.1273 11.4545 15.0727 10.3455 12.9091H6.70909C8.03636 15.8727 9.85455 18.6727 12.1273 21.2L2.87273 30.3273L5.45455 32.9091L14.5455 23.8182L20.2 29.4727L21.5818 25.7636ZM31.8182 16.5455H28.1818L20 38.3636H23.6364L25.6727 32.9091H34.3091L36.3636 38.3636H40L31.8182 16.5455ZM27.0545 29.2727L30 21.4L32.9455 29.2727H27.0545Z" fill="inherit"/>
</svg>
