<svg viewBox="0 0 40 40" fill="inherit" xmlns="http://www.w3.org/2000/svg">
<path fill-rule="evenodd" clip-rule="evenodd" d="M21.7045 0.680826C20.8477 -0.226942 19.4637 -0.226942 18.6069 0.680826L11.6426 8.08263C11.5844 8.14424 11.5302 8.20842 11.48 8.27483C11.4781 8.27726 11.4763 8.2797 11.4745 8.28214C10.79 9.19397 10.8461 10.5207 11.6426 11.3646C12.4994 12.2723 13.8835 12.2723 14.7403 11.3646L20.1667 5.63864L25.5711 11.3646C26.4279 12.2723 27.812 12.2723 28.6688 11.3646C29.4653 10.5207 29.5213 9.19398 28.8369 8.28214C28.7851 8.21313 28.729 8.1465 28.6688 8.08263L21.7045 0.680826ZM18.6288 39.3192C19.4856 40.2269 20.8697 40.2269 21.7265 39.3192L28.6907 31.9406C28.7467 31.8813 28.7991 31.8196 28.8478 31.7558C28.8515 31.7509 28.8552 31.746 28.8589 31.7411C29.5433 30.8293 29.4873 29.5026 28.6907 28.6587C27.8339 27.7509 26.4499 27.7509 25.5931 28.6587L20.1667 34.3614L14.7622 28.6354C13.9054 27.7277 12.5214 27.7277 11.6646 28.6354C10.8681 29.4793 10.812 30.806 11.4964 31.7179C11.5482 31.7869 11.6043 31.8535 11.6646 31.9174L18.6288 39.3192Z" fill="inherit"/>
</svg>
