<svg viewBox="0 0 40 40" fill="inherit" xmlns="http://www.w3.org/2000/svg">
<path fill-rule="evenodd" clip-rule="evenodd" d="M20.4227 8.4085C19.9086 7.86383 19.0782 7.86383 18.5641 8.4085L14.3856 12.8496C14.3507 12.8865 14.3181 12.9251 14.288 12.9649C14.2869 12.9664 14.2858 12.9678 14.2847 12.9693C13.874 13.5164 13.9076 14.3124 14.3856 14.8187C14.8996 15.3634 15.7301 15.3634 16.2442 14.8187L19.5 11.3832L22.7427 14.8187C23.2567 15.3634 24.0872 15.3634 24.6013 14.8187C25.0792 14.3124 25.1128 13.5164 24.7021 12.9693C24.6711 12.9279 24.6374 12.8879 24.6013 12.8496L20.4227 8.4085ZM18.5773 31.5915C19.0914 32.1362 19.9218 32.1362 20.4359 31.5915L24.6144 27.1644C24.648 27.1288 24.6795 27.0917 24.7087 27.0535C24.7109 27.0505 24.7131 27.0476 24.7153 27.0447C25.126 26.4976 25.0924 25.7016 24.6144 25.1952C24.1004 24.6506 23.2699 24.6506 22.7558 25.1952L19.5 28.6168L16.2573 25.1813C15.7433 24.6366 14.9128 24.6366 14.3987 25.1813C13.9208 25.6876 13.8872 26.4836 14.2979 27.0307C14.3289 27.0721 14.3626 27.1121 14.3987 27.1504L18.5773 31.5915Z" fill="inherit"/>
</svg>
